<?xml version="1.0" encoding="UTF-8"?>
<svg enable-background="new 0 0 1200 1200" version="1.1" viewBox="0 0 1200 1200" xml:space="preserve" xmlns="http://www.w3.org/2000/svg">
	<g fill="#2E4C59">
			<path d="m827.01 716.51c-2.063 0-4.12-0.433-6.023-1.287-1.904-0.854-3.654-2.13-5.104-3.816l-34.527-40.145-34.527-40.145c-2.641-3.071-3.787-6.922-3.505-10.666s1.993-7.38 5.064-10.021c3.068-2.641 6.92-3.788 10.664-3.507s7.381 1.991 10.02 5.062l34.527 40.145 34.527 40.145c2.641 3.071 3.787 6.922 3.505 10.666s-1.992 7.38-5.064 10.021c-1.384 1.19-2.926 2.077-4.547 2.666-1.619 0.59-3.317 0.882-5.01 0.882z"/>
    <path d="m442.06 268.95c-2.063 0-4.118-0.433-6.021-1.287s-3.653-2.13-5.106-3.816l-34.53-40.145-34.53-40.145c-2.641-3.071-3.787-6.922-3.505-10.666s1.993-7.38 5.064-10.021c3.068-2.643 6.917-3.79 10.66-3.509s7.38 1.992 10.024 5.064l34.53 40.145 34.53 40.145c2.641 3.071 3.787 6.922 3.505 10.666s-1.993 7.38-5.064 10.021c-1.384 1.19-2.926 2.077-4.547 2.666-1.62 0.591-3.317 0.882-5.01 0.882z"/>
    <path d="m921.03 452.58h-97.662c-4.051 0-7.718-1.642-10.372-4.296s-4.296-6.321-4.296-10.372 1.642-7.718 4.296-10.372 6.321-4.296 10.372-4.296h97.662c4.051 0 7.718 1.642 10.372 4.296s4.296 6.321 4.296 10.372-1.642 7.718-4.296 10.372c-2.654 2.655-6.321 4.296-10.372 4.296z"/>
    <path d="m376.63 452.58h-97.658c-4.051 0-7.718-1.642-10.372-4.296s-4.296-6.321-4.296-10.372 1.642-7.718 4.296-10.372 6.321-4.296 10.372-4.296h97.658c4.051 0 7.718 1.642 10.372 4.296s4.296 6.321 4.296 10.372-1.642 7.718-4.296 10.372c-2.654 2.655-6.321 4.296-10.372 4.296z"/>
    <path d="m757.94 268.95c-1.693 0-3.391-0.292-5.011-0.881s-3.163-1.476-4.547-2.666c-3.071-2.641-4.781-6.278-5.064-10.021-0.282-3.744 0.864-7.595 3.505-10.666l34.527-40.145 34.527-40.145c2.639-3.07 6.275-4.779 10.02-5.061 3.744-0.282 7.596 0.864 10.664 3.506 3.071 2.641 4.781 6.278 5.064 10.021 0.282 3.744-0.864 7.595-3.505 10.666l-34.527 40.145-34.527 40.145c-1.45 1.686-3.2 2.962-5.104 3.816-1.902 0.854-3.959 1.286-6.022 1.286z"/>
    <path d="m372.99 716.51c-1.693 0-3.391-0.292-5.011-0.881s-3.163-1.476-4.547-2.666c-3.071-2.641-4.781-6.278-5.064-10.021-0.282-3.744 0.864-7.595 3.505-10.666l34.53-40.145 34.53-40.145c2.639-3.068 6.275-4.777 10.02-5.059 3.744-0.282 7.596 0.863 10.664 3.503 3.071 2.641 4.781 6.278 5.064 10.021 0.282 3.744-0.864 7.595-3.505 10.666l-34.53 40.145-34.53 40.145c-1.45 1.686-3.2 2.962-5.104 3.816s-3.959 1.287-6.022 1.287z"/>
    <path d="m600 192.88c-4.051 0-7.718-1.642-10.372-4.296s-4.296-6.321-4.296-10.372v-113.55c0-4.051 1.642-7.718 4.296-10.372s6.321-4.296 10.372-4.296 7.718 1.642 10.372 4.296 4.296 6.321 4.296 10.372v113.55c0 4.051-1.642 7.718-4.296 10.372s-6.321 4.296-10.372 4.296z"/>
    <path d="m600 825.83c-4.051 0-7.718-1.642-10.372-4.296s-4.296-6.321-4.296-10.372v-113.55c0-4.051 1.642-7.718 4.296-10.372s6.321-4.296 10.372-4.296 7.718 1.642 10.372 4.296 4.296 6.321 4.296 10.372v113.55c0 4.051-1.642 7.718-4.296 10.372s-6.321 4.296-10.372 4.296z"/>
    <path d="m721.56 798.04c-3.025 0-5.953-0.943-8.39-2.639s-4.384-4.148-5.447-7.164l-18.49-52.546-18.49-52.546c-1.344-3.82-1.011-7.824 0.612-11.209s4.536-6.151 8.355-7.496c3.822-1.342 7.825-1.011 11.21 0.612s6.151 4.536 7.497 8.358l18.49 52.546 18.49 52.546c1.344 3.82 1.011 7.824-0.612 11.209s-4.536 6.151-8.355 7.496c-0.805 0.282-1.619 0.491-2.433 0.628s-1.63 0.205-2.437 0.205z"/>
    <path d="m515.43 212.22c-3.025 0-5.953-0.943-8.39-2.639-2.437-1.697-4.384-4.148-5.447-7.164l-18.49-52.546-18.49-52.546c-1.344-3.82-1.011-7.824 0.612-11.209s4.536-6.151 8.355-7.496c3.819-1.342 7.822-1.011 11.208 0.612s6.153 4.536 7.499 8.358l18.49 52.546 18.49 52.546c1.344 3.82 1.011 7.824-0.612 11.209s-4.536 6.151-8.355 7.496c-0.805 0.282-1.619 0.491-2.433 0.628-0.814 0.138-1.629 0.205-2.437 0.205z"/>
    <path d="m896.04 596.93c-1.077 0-2.164-0.12-3.241-0.365s-2.142-0.617-3.176-1.122l-45.033-21.955-45.033-21.955c-3.641-1.775-6.218-4.857-7.441-8.406s-1.091-7.565 0.685-11.206c1.771-3.638 4.85-6.215 8.399-7.439s7.567-1.093 11.214 0.683l45.033 21.955 45.033 21.955c3.641 1.775 6.218 4.857 7.441 8.407 1.223 3.549 1.091 7.565-0.685 11.206-1.269 2.606-3.21 4.666-5.513 6.075s-4.967 2.167-7.683 2.167z"/>
    <path d="m394 352.15c-1.077 0-2.164-0.12-3.241-0.365-1.076-0.246-2.142-0.617-3.176-1.122l-45.033-21.956-45.033-21.956c-3.641-1.775-6.218-4.857-7.441-8.407-1.223-3.549-1.091-7.565 0.685-11.206 1.77-3.641 4.852-6.22 8.401-7.443s7.568-1.091 11.212 0.688l45.033 21.956 45.033 21.956c3.641 1.775 6.218 4.857 7.441 8.407 1.223 3.549 1.091 7.565-0.685 11.206-1.269 2.606-3.21 4.666-5.513 6.075s-4.967 2.167-7.683 2.167z"/>
    <path d="m806.75 354.25c-2.742 0-5.427-0.772-7.742-2.204s-4.259-3.525-5.516-6.167c-1.739-3.657-1.831-7.673-0.574-11.211s3.863-6.596 7.518-8.336l45.193-21.496 45.193-21.496c3.658-1.743 7.675-1.835 11.212-0.577s6.596 3.867 8.337 7.524c1.739 3.657 1.831 7.673 0.574 11.211s-3.862 6.596-7.518 8.336l-45.193 21.496-45.193 21.496c-1.017 0.483-2.063 0.839-3.118 1.074-1.054 0.235-2.118 0.35-3.173 0.35z"/>
    <path d="m302.88 593.91c-2.742 0-5.427-0.772-7.742-2.204s-4.259-3.525-5.516-6.167c-1.739-3.657-1.831-7.673-0.574-11.211 1.257-3.537 3.863-6.596 7.518-8.336l45.196-21.496 45.196-21.496c3.661-1.742 7.678-1.834 11.214-0.577 3.537 1.258 6.593 3.865 8.335 7.524 1.739 3.657 1.831 7.673 0.574 11.211-1.257 3.537-3.863 6.596-7.518 8.336l-45.196 21.496-45.196 21.496c-1.017 0.483-2.063 0.839-3.118 1.074s-2.118 0.35-3.173 0.35z"/>
    <path d="m686.38 213.09c-0.828 0-1.662-0.07-2.494-0.215-0.832-0.144-1.663-0.363-2.485-0.659-3.81-1.374-6.702-4.162-8.298-7.559s-1.895-7.404-0.52-11.214l18.885-52.357 18.885-52.357c1.372-3.812 4.164-6.702 7.564-8.296 3.4-1.595 7.408-1.894 11.212-0.525 3.81 1.374 6.702 4.162 8.298 7.559s1.895 7.404 0.52 11.214l-18.885 52.357-18.885 52.357c-1.077 2.988-3.025 5.412-5.455 7.088s-5.34 2.607-8.342 2.607z"/>
    <path d="m475.85 796.79c-0.828 0-1.662-0.07-2.494-0.215-0.832-0.144-1.663-0.363-2.485-0.659-3.81-1.374-6.702-4.162-8.298-7.559s-1.895-7.404-0.52-11.214l18.885-52.357 18.885-52.357c1.375-3.812 4.165-6.701 7.564-8.295 3.398-1.594 7.405-1.894 11.212-0.526 3.81 1.374 6.702 4.162 8.298 7.559s1.895 7.404 0.52 11.214l-18.885 52.357-18.885 52.357c-1.077 2.988-3.025 5.412-5.455 7.088-2.429 1.678-5.34 2.607-8.342 2.607z"/>
	</g>
  <path d="m890.82 450.46c0 91.718-32.551 174.75-85.179 234.86-52.628 60.105-125.33 97.281-205.64 97.281s-153.01-37.176-205.64-97.281-85.179-143.14-85.179-234.86 32.551-174.75 85.179-234.86 125.33-97.281 205.64-97.281 153.01 37.176 205.64 97.281c52.628 60.104 85.179 143.14 85.179 234.86z" fill="#0F9D58"/>
  <path d="m600 797.26c-84.224 0-160.6-38.894-215.91-101.69s-89.577-149.5-89.577-245.11c0-95.616 34.261-182.32 89.577-245.12s131.69-101.69 215.91-101.69 160.6 38.894 215.91 101.69 89.577 149.5 89.577 245.12c0 95.614-34.261 182.32-89.577 245.11s-131.69 101.69-215.91 101.69zm0-664.28c-76.136 0-145.18 35.604-195.18 93.09s-80.975 136.85-80.975 224.38 30.97 166.89 80.975 224.38 119.04 93.089 195.18 93.089 145.18-35.604 195.18-93.089 80.975-136.85 80.975-224.38-30.971-166.9-80.975-224.38c-50.005-57.486-119.04-93.09-195.18-93.09z" fill="#2E4C59"/>
  <path d="m791.76 450.46c0 91.718-21.464 174.75-56.166 234.86-34.702 60.105-82.642 97.281-135.6 97.281s-100.89-37.176-135.6-97.281-56.166-143.14-56.166-234.86 21.464-174.75 56.166-234.86 82.642-97.281 135.6-97.281 100.89 37.176 135.6 97.281c34.702 60.104 56.166 143.14 56.166 234.86z" fill="#0F9D58"/>
  <path d="m600 797.26c-28.342 0-55.68-9.288-80.801-27.009s-48.026-43.875-67.501-77.607c-18.742-32.463-33.274-70.197-43.12-111.22s-15.008-85.341-15.008-130.97 5.161-89.942 15.008-130.97 24.378-78.761 43.12-111.22c19.475-33.731 42.38-59.885 67.501-77.606s52.459-27.01 80.801-27.01 55.68 9.289 80.801 27.01 48.026 43.875 67.501 77.606c18.742 32.463 33.274 70.198 43.12 111.22s15.008 85.342 15.008 130.97-5.161 89.941-15.008 130.97-24.378 78.759-43.12 111.22c-19.475 33.732-42.38 59.886-67.501 77.607s-52.459 27.009-80.801 27.009zm0-664.28c-48.826 0-93.099 35.604-125.17 93.09s-51.928 136.85-51.928 224.38 19.861 166.89 51.928 224.38 76.34 93.089 125.17 93.089 93.099-35.604 125.17-93.089 51.928-136.85 51.928-224.38-19.861-166.9-51.928-224.38-76.34-93.09-125.17-93.09z" fill="#2E4C59"/>
  <path d="m682.86 450.46c0 91.718-9.274 174.75-24.269 234.86-14.995 60.105-35.709 97.281-58.59 97.281s-43.596-37.176-58.59-97.281c-14.995-60.105-24.269-143.14-24.269-234.86s9.274-174.75 24.269-234.86 35.709-97.281 58.59-97.281 43.596 37.176 58.59 97.281c14.995 60.104 24.269 143.14 24.269 234.86z" fill="#0F9D58"/>
  <path d="m600 797.26c-32.015 0-56.397-43.616-72.777-108.78s-24.754-151.86-24.754-238.03 8.375-172.87 24.754-238.03 40.762-108.78 72.777-108.78c32.012 0 56.393 43.617 72.772 108.78s24.754 151.86 24.754 238.03-8.375 172.87-24.754 238.03-40.76 108.78-72.772 108.78zm0-664.28c-11.901 0-28.949 27.259-43.023 80.573-14.074 53.313-25.172 132.68-25.172 236.9s11.098 183.58 25.172 236.9c14.074 53.313 31.122 80.571 43.023 80.571 11.898 0 28.945-27.258 43.018-80.571s25.171-132.68 25.171-236.9-11.098-183.58-25.171-236.9-31.12-80.573-43.018-80.573z" fill="#2E4C59"/>
  <g fill="#2E4C59" opacity=".35">
		<path d="m460.24 563.31c-36.68-21.843-65.895-50.9-89.041-84.57-23.145-33.671-40.22-71.955-52.618-112.25-3.06 13.413-5.41 27.153-6.994 41.167s-2.404 28.302-2.404 42.809c0 91.717 32.551 174.75 85.18 234.86s125.33 97.281 205.64 97.281c46.103 0 89.685-12.266 128.4-34.088s72.567-53.201 99.208-91.426c-64.466 1.637-128-4.946-189.57-20.369-61.571-15.423-121.18-39.685-177.81-73.407z"/>
    <path d="m600 797.26c-84.224 0-160.6-38.894-215.91-101.69s-89.577-149.5-89.577-245.11c0-14.743 0.821-29.451 2.452-44.025s4.072-29.013 7.312-43.215c0.739-3.237 2.52-6.025 4.945-8.033 2.425-2.009 5.495-3.238 8.812-3.36 3.343-0.135 6.496 0.864 9.057 2.69s4.531 4.479 5.508 7.652c13.502 43.891 31.621 81.695 54.198 113.19s49.613 56.685 80.949 75.345c53.885 32.089 111.08 55.846 171.14 71.167s122.99 22.206 188.35 20.551c2.876-0.056 5.544 0.655 7.819 1.989 2.275 1.333 4.159 3.288 5.468 5.721 1.312 2.435 1.882 5.136 1.729 7.795s-1.03 5.276-2.611 7.544c-29.187 41.878-65.617 74.827-106.49 97.306s-86.191 34.487-133.15 34.487zm-275.27-372.23c-0.295 4.223-0.516 8.455-0.663 12.693s-0.22 8.482-0.22 12.73c0 87.527 30.97 166.89 80.975 224.38s119.04 93.089 195.18 93.089c37.584 0 74.049-8.662 107.6-24.993s64.194-40.33 90.13-71.006c-62.419-0.852-122.61-9.339-180.23-25.373-57.616-16.033-112.66-39.612-164.78-70.649-27.589-16.43-52.109-37.3-73.472-62.486s-39.569-54.689-54.529-88.385z"/>
	</g>
  <path d="m908.09 811.16h-616.18c-9.556 0-18.207-3.873-24.469-10.136-6.262-6.262-10.136-14.914-10.136-24.469v-76.472c0-9.556 3.873-18.207 10.136-24.469 6.262-6.262 14.914-10.136 24.469-10.136h616.18c9.556 0 18.207 3.873 24.469 10.136 6.262 6.262 10.136 14.914 10.136 24.469v76.472c0 9.556-3.873 18.207-10.136 24.469-6.262 6.263-14.913 10.136-24.469 10.136z" fill="#EAEEEF"/>
  <path d="m918.68 825.83h-637.37c-10.666 0-20.336-4.338-27.34-11.342s-11.341-16.674-11.341-27.339v-97.654c0-10.664 4.337-20.335 11.341-27.339s16.674-11.342 27.34-11.342h637.37c10.666 0 20.336 4.338 27.34 11.342s11.341 16.674 11.341 27.339v97.654c0 10.664-4.337 20.335-11.341 27.339s-16.674 11.342-27.34 11.342zm-637.37-145.68c-2.576 0-4.912 1.048-6.604 2.74s-2.741 4.028-2.741 6.605v97.654c0 2.577 1.049 4.913 2.741 6.605s4.029 2.74 6.604 2.74h637.37c2.576 0 4.912-1.048 6.604-2.74s2.741-4.028 2.741-6.605v-97.654c0-2.577-1.049-4.913-2.741-6.605s-4.029-2.74-6.604-2.74h-637.37z" fill="#2E4C59"/>
  <path d="m813.44 1108.5h-426.87c-10.235 0-20.103-4.184-27.791-11.001s-13.196-16.264-14.711-26.79l-18.675-129.77-18.675-129.77h586.57l-18.675 129.77-18.675 129.77c-1.515 10.526-7.023 19.974-14.711 26.79s-17.556 11.001-27.791 11.001z" fill="#EAEEEF"/>
  <path d="m813.43 1123.2h-426.87c-13.955 0-27.193-5.531-37.452-14.593-10.258-9.062-17.536-21.653-19.571-35.774l-18.673-129.77-18.673-129.77c-0.304-2.106-0.142-4.225 0.444-6.22s1.596-3.866 2.988-5.474c1.392-1.607 3.1-2.873 4.991-3.736 1.892-0.864 3.967-1.326 6.096-1.326h586.57c2.129 0 4.204 0.462 6.096 1.326s3.599 2.129 4.991 3.736c1.392 1.609 2.402 3.479 2.988 5.474s0.748 4.114 0.444 6.22l-18.675 129.77-18.676 129.77c-2.034 14.122-9.312 26.715-19.571 35.777-10.257 9.062-23.496 14.593-37.451 14.593zm-489.79-297.33l17.467 121.39 17.467 121.39c0.983 6.833 4.678 13.135 9.778 17.73s11.605 7.481 18.205 7.481h426.87c6.601 0 13.105-2.886 18.205-7.481s8.796-10.898 9.778-17.732l17.47-121.39 17.47-121.39h-552.71z" fill="#2E4C59"/>
  <g fill="#2E4C59" opacity=".35">
			<polygon points="876.53 927.63 884.91 869.39 893.29 811.16 600 811.16 306.72 811.16 315.1 869.39 323.48 927.63 600 927.63"/>
    <path d="m876.53 942.3h-553.05c-3.647 0-7.017-1.34-9.606-3.582-2.588-2.242-4.395-5.387-4.913-8.997l-8.38-58.234-8.38-58.234c-0.304-2.106-0.142-4.225 0.444-6.22s1.596-3.866 2.988-5.474c1.392-1.607 3.1-2.873 4.991-3.736 1.892-0.864 3.967-1.326 6.096-1.326h586.57c2.129 0 4.204 0.462 6.096 1.326s3.599 2.129 4.991 3.736c1.392 1.609 2.402 3.479 2.988 5.474s0.748 4.114 0.444 6.22l-8.38 58.234-8.38 58.234c-0.519 3.61-2.325 6.755-4.913 8.997-2.587 2.242-5.957 3.582-9.604 3.582zm-540.35-29.336h527.64l6.268-43.566 6.268-43.566h-552.71l6.268 43.566 6.268 43.566z"/>
		</g>
  <path d="m872.36 1081.7h-544.72c-6.84 0-13.033 2.773-17.515 7.255-4.483 4.483-7.255 10.675-7.255 17.515v4.132c0 6.84 2.772 13.033 7.255 17.515 4.483 4.483 10.675 7.255 17.515 7.255h544.72c6.84 0 13.033-2.772 17.515-7.255 4.483-4.483 7.255-10.675 7.255-17.515v-4.132c0-6.84-2.773-13.033-7.255-17.515s-10.675-7.255-17.515-7.255z" fill="#9AA1A7"/>
  <path d="m870.3 1150h-540.59c-11.442 0-21.819-4.655-29.335-12.17-7.516-7.516-12.171-17.892-12.171-29.336 0-11.442 4.655-21.818 12.171-29.333s17.892-12.17 29.335-12.17h540.59c11.442 0 21.817 4.655 29.332 12.17s12.168 17.891 12.168 29.333c0 11.444-4.654 21.82-12.168 29.336-7.515 7.515-17.89 12.17-29.332 12.17zm-540.59-53.673c-3.355 0-6.397 1.364-8.601 3.567s-3.569 5.245-3.569 8.6 1.365 6.397 3.569 8.601 5.246 3.569 8.601 3.569h540.59c3.355 0 6.396-1.365 8.598-3.569s3.566-5.246 3.566-8.601-1.364-6.396-3.566-8.6c-2.202-2.203-5.243-3.567-8.598-3.567h-540.59z" fill="#2E4C59"/>
</svg>
