<?xml version="1.0" encoding="UTF-8"?>
<svg enable-background="new 0 0 1200 1200" version="1.1" viewBox="0 0 1200 1200" xml:space="preserve" xmlns="http://www.w3.org/2000/svg">
	<path d="m966.89 866.27h-96.002c-3.887 0-7.406-1.575-9.953-4.122s-4.122-6.066-4.122-9.953v-532.58c0-3.887 1.575-7.406 4.122-9.953s6.066-4.122 9.953-4.122h96.002c29.358 0 55.978 11.942 75.26 31.224 19.281 19.281 31.224 45.902 31.224 75.26v347.76c0 29.358-11.942 55.978-31.224 75.26-19.282 19.281-45.903 31.223-75.26 31.223zm-81.926-28.151h81.926c21.597 0 41.18-8.785 55.364-22.969s22.969-33.767 22.969-55.364v-347.76c0-21.597-8.785-41.18-22.969-55.364s-33.767-22.969-55.364-22.969h-81.926v504.43z" fill="#2E4C59"/>
  <path d="m845.31 1135.9h-603.22c-27.995 0-53.34-11.347-71.687-29.694s-29.694-43.691-29.694-71.687v-16.912c0-27.995 11.347-53.34 29.694-71.687s43.691-29.694 71.687-29.694h603.22c27.995 0 53.34 11.347 71.687 29.694s29.694 43.691 29.694 71.687v16.912c0 27.995-11.347 53.34-29.694 71.687s-43.692 29.694-71.687 29.694z" fill="#9AA1A7"/>
  <path d="m855.56 1150h-623.73c-29.004 0-55.305-11.799-74.354-30.85s-30.848-45.353-30.848-74.358v-37.416c0-29.006 11.798-55.306 30.848-74.355s45.35-30.847 74.354-30.847h623.73c29.006 0 55.307 11.798 74.357 30.847s30.848 45.35 30.848 74.355v37.416c0 29.006-11.798 55.308-30.848 74.358-19.05 19.051-45.351 30.85-74.357 30.85zm-623.73-219.67c-21.244 0-40.507 8.642-54.459 22.594s-22.593 33.215-22.593 54.457v37.416c0 21.245 8.641 40.509 22.593 54.462s33.215 22.595 54.459 22.595h623.73c21.244 0 40.507-8.642 54.46-22.595s22.594-33.217 22.594-54.462v-37.416c0-21.242-8.642-40.505-22.594-54.457-13.953-13.952-33.216-22.594-54.46-22.594h-623.73z" fill="#2E4C59"/>
  <path d="m862.58 1094.5h-637.76c-23.227 0-44.255-9.415-59.476-24.636s-24.636-36.249-24.636-59.476v-14.03c0-23.227 9.415-44.255 24.636-59.476s36.249-24.636 59.476-24.636h637.76c23.227 0 44.255 9.415 59.476 24.636s24.636 36.249 24.636 59.476v14.03c0 23.227-9.415 44.255-24.636 59.476-15.22 15.222-36.248 24.636-59.475 24.636z" fill="#EAEEEF"/>
  <path d="m855.56 1108.6h-623.73c-29.004 0-55.305-11.798-74.354-30.847s-30.848-45.35-30.848-74.355c0-29.006 11.798-55.306 30.848-74.355s45.35-30.847 74.354-30.847h623.73c29.006 0 55.307 11.798 74.357 30.847s30.848 45.35 30.848 74.355c0 29.006-11.798 55.306-30.848 74.355s-45.351 30.847-74.357 30.847zm-623.73-182.25c-21.244 0-40.507 8.642-54.459 22.594s-22.593 33.215-22.593 54.457 8.641 40.505 22.593 54.457 33.215 22.594 54.459 22.594h623.73c21.244 0 40.507-8.642 54.46-22.594s22.594-33.215 22.594-54.457-8.642-40.505-22.594-54.457c-13.953-13.952-33.216-22.594-54.46-22.594h-623.73z" fill="#2E4C59"/>
  <g fill="#2E4C59" opacity=".2">
		<path d="m193.99 940.39v42.052c0 20.499 8.309 39.056 21.742 52.489s31.991 21.742 52.49 21.742h539.69c20.498 0 39.056-8.308 52.49-21.742 13.433-13.433 21.742-31.991 21.742-52.489v-42.052h-688.16z"/>
    <path d="m807.91 1070.7h-539.69c-24.346 0-46.423-9.904-62.413-25.894s-25.894-38.067-25.894-62.413v-42.05c0-3.887 1.575-7.406 4.122-9.953s6.066-4.122 9.953-4.122h688.15c3.887 0 7.406 1.575 9.953 4.122s4.122 6.066 4.122 9.953v42.05c0 24.346-9.904 46.423-25.894 62.413s-38.064 25.894-62.41 25.894zm-599.85-116.28v27.974c0 16.585 6.746 31.624 17.639 42.517s25.932 17.639 42.517 17.639h539.69c16.585 0 31.624-6.746 42.517-17.639s17.639-25.932 17.639-42.517v-27.974h-660z"/>
	</g>
  <path d="m775.17 1017.3h-474.21c-29.54 0-56.284-11.974-75.643-31.332-19.359-19.359-31.332-46.102-31.332-75.643v-712.43c0-18.183 7.37-34.644 19.286-46.56s28.377-19.286 46.56-19.286h556.46c18.183 0 34.644 7.37 46.56 19.286s19.286 28.377 19.286 46.56v712.43c0 29.54-11.974 56.284-31.332 75.643-19.359 19.358-46.103 31.332-75.643 31.332z" fill="#4285F4"/>
  <path d="m807.91 1031.3h-539.69c-24.346 0-46.423-9.904-62.413-25.894s-25.894-38.067-25.894-62.413v-765.32c0-16.478 6.703-31.419 17.525-42.241s25.763-17.524 42.24-17.524h596.77c16.477 0 31.418 6.702 42.24 17.524s17.525 25.763 17.525 42.241v765.33c0 24.346-9.904 46.423-25.894 62.413s-38.066 25.893-62.412 25.893zm-568.23-885.25c-8.716 0-16.62 3.545-22.344 9.269-5.725 5.724-9.27 13.628-9.27 22.345v765.33c0 16.585 6.746 31.624 17.639 42.517s25.932 17.639 42.517 17.639h539.69c16.585 0 31.624-6.746 42.517-17.639s17.639-25.932 17.639-42.517v-765.33c0-8.717-3.546-16.621-9.27-22.345-5.725-5.724-13.628-9.269-22.344-9.269h-596.77z" fill="#2E4C59"/>
  <g fill="#2E4C59" opacity=".2">
		<path d="m836.46 132.01h-122.48v885.25h93.938c20.498 0 39.056-8.308 52.49-21.742s21.742-31.991 21.742-52.489v-765.33c0-12.617-5.114-24.04-13.383-32.309s-19.692-13.382-32.309-13.382z"/>
    <path d="m807.91 1031.3h-93.936c-3.887 0-7.406-1.575-9.953-4.122s-4.122-6.066-4.122-9.953v-885.25c0-3.887 1.575-7.406 4.122-9.953s6.066-4.122 9.953-4.122h122.48c16.477 0 31.418 6.702 42.24 17.524s17.525 25.763 17.525 42.241v765.33c0 24.346-9.904 46.423-25.894 62.413s-38.067 25.893-62.413 25.893zm-79.861-28.151h79.862c16.585 0 31.624-6.746 42.517-17.639s17.639-25.932 17.639-42.517v-765.32c0-8.717-3.546-16.621-9.27-22.345-5.725-5.724-13.628-9.269-22.344-9.269h-108.4v857.1z"/>
	</g>
  <g fill="#2E4C59" opacity=".2">
		<path d="m241.04 132.01h-1.364c-12.617 0-24.04 5.114-32.309 13.383s-13.383 19.691-13.383 32.309v765.33c0 15.697 4.879 30.24 13.201 42.216s20.085 21.384 33.854 26.81v-880.05z"/>
    <path d="m241.04 1026.1c-0.871 0-1.745-0.081-2.609-0.244s-1.718-0.408-2.551-0.735c-17-6.7-30.993-18.108-40.735-32.404s-15.234-31.477-15.234-49.723v-765.32c0-16.478 6.703-31.419 17.525-42.241s25.763-17.524 42.24-17.524h1.364c3.887 0 7.406 1.575 9.953 4.122s4.122 6.066 4.122 9.953v880.05c0 2.328-0.576 4.581-1.633 6.58s-2.596 3.743-4.522 5.054c-1.185 0.808-2.469 1.419-3.804 1.827-1.336 0.408-2.723 0.614-4.116 0.614zm-14.075-877.38c-5.56 2.452-10.286 6.46-13.621 11.47s-5.281 11.02-5.281 17.478v765.33c0 8.511 1.757 16.683 4.998 24.116 3.241 7.434 7.967 14.129 13.905 19.688v-838.08z"/>
	</g>
  <path d="m839.97 223.4h-603.81c-11.646 0-22.189-4.72-29.821-12.352s-12.352-18.175-12.352-29.821v-7.036c0-11.646 4.72-22.189 12.352-29.821s18.175-12.352 29.821-12.352h603.81c11.646 0 22.189 4.72 29.821 12.352s12.352 18.175 12.352 29.821v7.036c0 11.646-4.72 22.189-12.352 29.821s-18.175 12.352-29.821 12.352z" fill="#9AA1A7"/>
  <path d="m836.46 237.47h-596.77c-16.477 0-31.418-6.702-42.24-17.524s-17.525-25.763-17.525-42.241 6.703-31.419 17.525-42.241 25.763-17.524 42.24-17.524h596.77c16.477 0 31.418 6.702 42.24 17.524s17.525 25.763 17.525 42.241-6.703 31.419-17.525 42.241-25.764 17.524-42.241 17.524zm-596.77-91.38c-8.716 0-16.62 3.545-22.344 9.269-5.725 5.724-9.27 13.628-9.27 22.345s3.546 16.621 9.27 22.345c5.725 5.724 13.628 9.269 22.344 9.269h596.77c8.716 0 16.62-3.545 22.344-9.269 5.725-5.724 9.27-13.628 9.27-22.345s-3.546-16.621-9.27-22.345c-5.725-5.724-13.628-9.269-22.344-9.269h-596.77z" fill="#2E4C59"/>
  <g fill="#2E4C59" opacity=".2">
		<path d="m195.4 188.77c2.477 9.939 8.195 18.596 15.971 24.768s17.609 9.859 28.315 9.859h596.77c10.706 0 20.539-3.687 28.315-9.859s13.494-14.829 15.971-24.768h-685.34z"/>
    <path d="m836.46 237.47h-596.77c-13.737 0-26.562-4.657-36.784-12.648-10.221-7.991-17.838-19.316-21.159-32.652-0.524-2.103-0.549-4.268-0.11-6.333s1.343-4.031 2.678-5.735c1.333-1.707 3.023-3.06 4.92-3.985 1.898-0.926 4.003-1.425 6.17-1.425h685.34c2.166 0 4.272 0.499 6.17 1.425s3.587 2.278 4.92 3.985c1.335 1.707 2.238 3.673 2.678 5.737 0.439 2.065 0.414 4.228-0.11 6.331-3.322 13.336-10.941 24.661-21.162 32.652-10.222 7.991-23.047 12.648-36.781 12.648zm-615.94-34.628c2.679 2.048 5.686 3.667 8.917 4.774 3.23 1.107 6.683 1.702 10.253 1.702h596.77c3.568 0 7.021-0.595 10.25-1.702 3.23-1.107 6.237-2.726 8.916-4.774h-635.11z"/>
	</g>
  <path d="m301.89 414.92c-3.887 0-7.406-1.575-9.953-4.122s-4.122-6.066-4.122-9.953v-253.09c0-26.949 10.962-51.386 28.661-69.085s42.136-28.662 69.085-28.662 51.387 10.962 69.087 28.661 28.663 42.136 28.663 69.085v63.966c0 3.887-1.575 7.406-4.122 9.953s-6.066 4.122-9.953 4.122-7.406-1.575-9.953-4.122-4.122-6.066-4.122-9.953v-63.965c0-19.189-7.805-36.588-20.408-49.19s-30.002-20.407-49.191-20.407c-19.187 0-36.586 7.805-49.188 20.407s-20.408 30.001-20.408 49.19v253.09c0 3.887-1.575 7.406-4.122 9.953-2.548 2.547-6.067 4.123-9.954 4.123z" fill="#2E4C59"/>
  <polygon points="423.89 734.84 298.62 734.84 173.35 734.84 173.35 603.97 173.35 473.09 237.62 436.96 301.88 400.84 362.89 436.96 423.89 473.09 423.89 603.97" fill="#fff"/>
  <path d="m423.89 748.92h-250.54c-3.887 0-7.406-1.575-9.953-4.122s-4.122-6.066-4.122-9.953v-261.75c0-2.543 0.686-4.987 1.926-7.107s3.035-3.917 5.252-5.165l64.268-36.126 64.268-36.126c2.195-1.232 4.632-1.831 7.06-1.803s4.848 0.684 7.01 1.962l61.002 36.126 61.002 36.126c2.139 1.267 3.865 3.053 5.056 5.143s1.847 4.484 1.847 6.97v261.75c0 3.887-1.575 7.406-4.122 9.953s-6.065 4.122-9.953 4.122zm-236.47-28.15h222.39v-239.66l-54.057-32.013-54.057-32.013-57.139 32.12-57.139 32.12v239.44z" fill="#2E4C59"/>
  <g fill="#2E4C59" opacity=".2">
		<polygon points="295.94 634.96 295.94 519.57 295.94 404.18 234.64 438.64 173.35 473.09 173.35 603.97 173.35 734.84 298.62 734.84 423.89 734.84 423.89 684.9 423.89 634.96 359.92 634.96"/>
    <path d="m423.89 748.92h-250.54c-3.887 0-7.406-1.575-9.953-4.122s-4.122-6.066-4.122-9.953v-261.75c0-2.543 0.686-4.987 1.926-7.107s3.035-3.917 5.252-5.165l61.295-34.457 61.295-34.457c2.177-1.223 4.599-1.823 7.016-1.801 2.417 0.021 4.829 0.663 6.988 1.922 2.158 1.265 3.9 3.053 5.103 5.15s1.866 4.502 1.866 7.001v216.71h113.88c3.887 0 7.406 1.575 9.953 4.122s4.122 6.066 4.122 9.953v99.885c0 3.887-1.575 7.406-4.122 9.953-2.548 2.547-6.066 4.122-9.954 4.122zm-236.47-28.15h222.39v-71.735h-113.88c-3.887 0-7.406-1.575-9.953-4.122s-4.122-6.066-4.122-9.953v-206.72l-47.22 26.545-47.22 26.545v239.44z"/>
	</g>
</svg>
