<?xml version="1.0" encoding="UTF-8"?>
<svg enable-background="new 0 0 1200 1200" version="1.1" viewBox="0 0 1200 1200" xml:space="preserve" xmlns="http://www.w3.org/2000/svg">
			<path d="m763.32 1005.1h-163.32-163.32c23.406-32.929 37.235-66.688 42.021-98.454s0.53-61.539-12.232-86.498h133.53 133.53c-12.762 24.959-17.018 54.732-12.232 86.498s18.614 65.524 42.021 98.454z" fill="#9AA1A7"/>
  <path d="m763.32 1017.6h-326.64c-2.341 0-4.585-0.654-6.511-1.827-1.926-1.174-3.536-2.867-4.608-4.947s-1.521-4.372-1.362-6.622 0.925-4.457 2.281-6.364c21.271-29.924 34.601-60.961 39.555-90.5 4.954-29.538 1.532-57.578-10.704-81.508-0.992-1.939-1.444-4.066-1.364-6.174 0.08-2.107 0.692-4.194 1.829-6.053 1.136-1.858 2.716-3.354 4.556-4.385s3.941-1.597 6.118-1.597h267.07c2.177 0 4.278 0.566 6.118 1.597s3.42 2.527 4.556 4.385c1.136 1.859 1.749 3.945 1.829 6.053 0.08 2.107-0.372 4.234-1.364 6.174-12.238 23.931-15.662 51.971-10.709 81.51s18.284 60.575 39.555 90.498c1.356 1.907 2.122 4.114 2.281 6.364s-0.29 4.543-1.362 6.622-2.682 3.773-4.608 4.947c-1.927 1.173-4.171 1.827-6.512 1.827zm-303.54-25.024h280.43c-16.354-27.401-26.817-55.45-31.152-82.615s-2.543-53.447 5.615-77.313h-229.35c8.157 23.865 9.949 50.146 5.612 77.311s-14.801 55.214-31.155 82.617z" fill="#2E4C59"/>
  <g fill="#2E4C59" opacity=".35">
			<path d="m480.19 892.27h239.62c-0.862-13.17-0.134-25.91 2.16-38s6.156-23.531 11.562-34.104h-267.06c5.406 10.572 9.267 22.013 11.562 34.104 2.294 12.09 3.022 24.83 2.16 38z"/>
    <path d="m719.81 904.78h-239.62c-1.73 0-3.421-0.358-4.976-1.032-1.554-0.674-2.972-1.664-4.154-2.927-1.183-1.262-2.078-2.742-2.65-4.338s-0.82-3.308-0.707-5.034c0.799-12.169 0.158-23.771-1.91-34.728-2.067-10.957-5.561-21.27-10.465-30.861-0.992-1.939-1.444-4.066-1.364-6.174 0.08-2.107 0.692-4.194 1.829-6.053 1.136-1.858 2.716-3.354 4.556-4.385s3.941-1.597 6.118-1.597h267.06c2.177 0 4.278 0.566 6.118 1.597s3.42 2.527 4.556 4.385c1.136 1.859 1.749 3.945 1.829 6.053 0.08 2.107-0.372 4.234-1.364 6.174-4.905 9.591-8.398 19.903-10.465 30.861-2.067 10.957-2.709 22.559-1.91 34.728 0.112 1.727-0.136 3.438-0.707 5.034-0.572 1.596-1.467 3.075-2.65 4.338s-2.6 2.253-4.154 2.927c-1.556 0.674-3.247 1.032-4.978 1.032zm-226.77-25.024h213.93c0.103-8.255 0.811-16.356 2.112-24.228s3.193-15.514 5.664-22.851h-229.48c2.471 7.337 4.363 14.98 5.664 22.851 1.301 7.872 2.01 15.973 2.112 24.228z"/>
		</g>
  <g fill="#2E4C59">
			<path d="m1085.4 829.94h-970.79c-14.385 0-27.408-5.831-36.834-15.257-9.427-9.427-15.257-22.45-15.257-36.834v-556.25c0-14.385 5.831-27.408 15.257-36.834 9.427-9.427 22.45-15.257 36.834-15.257h970.79c14.385 0 27.408 5.831 36.834 15.257 9.427 9.427 15.257 22.45 15.257 36.834v556.25c0 14.385-5.831 27.408-15.257 36.834-9.427 9.428-22.45 15.258-36.834 15.258z"/>
    <path d="m1101.3 842.46h-1002.7c-13.416 0-25.581-5.457-34.392-14.268s-14.268-20.975-14.268-34.39v-588.14c0-13.415 5.457-25.58 14.268-34.39 8.811-8.811 20.976-14.268 34.392-14.268h1002.7c13.416 0 25.581 5.457 34.392 14.268s14.268 20.975 14.268 34.39v588.14c0 13.415-5.457 25.58-14.268 34.39s-20.976 14.268-34.392 14.268zm-1002.7-660.43c-6.516 0-12.425 2.65-16.705 6.93s-6.931 10.188-6.931 16.704v588.14c0 6.516 2.651 12.425 6.931 16.704s10.189 6.93 16.705 6.93h1002.7c6.518 0 12.427-2.65 16.706-6.93 4.28-4.279 6.93-10.188 6.93-16.704v-588.14c0-6.516-2.65-12.425-6.93-16.704s-10.189-6.93-16.706-6.93h-1002.7z"/>
		</g>
  <path d="m62.513 711.35v80.018c0 10.653 4.318 20.297 11.299 27.278s16.625 11.299 27.278 11.299h997.82c10.653 0 20.297-4.318 27.278-11.299s11.299-16.625 11.299-27.278v-80.018h-1075z" fill="#EAEEEF"/>
  <path d="m1098.9 842.46h-997.82c-14.086 0-26.858-5.729-36.109-14.98-9.251-9.25-14.98-22.022-14.98-36.107v-80.019c0-3.455 1.4-6.583 3.664-8.848 2.264-2.264 5.392-3.664 8.848-3.664h1075c3.455 0 6.583 1.4 8.848 3.664s3.664 5.392 3.664 8.848v80.018c0 14.085-5.729 26.856-14.98 36.107-9.251 9.252-22.024 14.981-36.109 14.981zm-1023.9-118.59v67.506c0 7.186 2.923 13.702 7.643 18.421s11.236 7.642 18.422 7.642h997.82c7.187 0 13.703-2.923 18.423-7.642s7.642-11.235 7.642-18.421v-67.506h-1050z" fill="#2E4C59"/>
  <path d="m836.35 979.75h-472.7c-6.467 0-12.321 2.621-16.559 6.859s-6.859 10.092-6.859 16.559v3.906c0 6.467 2.621 12.321 6.859 16.559s10.092 6.859 16.559 6.859h472.71c6.467 0 12.321-2.621 16.559-6.859s6.859-10.092 6.859-16.559v-3.906c0-6.467-2.621-12.321-6.859-16.559s-10.093-6.859-16.56-6.859z" fill="#EAEEEF"/>
  <path d="m836 1043h-472c-10.005 0-19.076-4.069-25.646-10.64-6.57-6.57-10.639-15.642-10.639-25.645v-3.196c0-10.004 4.069-19.075 10.639-25.645s15.641-10.64 25.646-10.64h471.99c10.005 0 19.076 4.07 25.646 10.64s10.639 15.642 10.639 25.645v3.196c0 10.004-4.069 19.075-10.639 25.645s-15.64 10.64-25.645 10.64zm-472-50.743c-3.104 0-5.919 1.263-7.958 3.302s-3.303 4.854-3.303 7.959v3.196c0 3.105 1.263 5.92 3.303 7.959 2.039 2.039 4.855 3.302 7.958 3.302h471.99c3.104 0 5.919-1.263 7.958-3.302s3.303-4.854 3.303-7.959v-3.196c0-3.105-1.263-5.92-3.303-7.959-2.039-2.039-4.855-3.302-7.958-3.302h-471.99z" fill="#2E4C59"/>
  <path d="m645.37 783.16h-90.742c-3.456 0-6.584-1.4-8.848-3.664s-3.664-5.392-3.664-8.848 1.4-6.584 3.664-8.848 5.392-3.664 8.848-3.664h90.742c3.456 0 6.584 1.4 8.848 3.664s3.664 5.392 3.664 8.848c0 3.455-1.4 6.583-3.664 8.848s-5.392 3.664-8.848 3.664z" fill="#2E4C59"/>
  <polygon points="878.96 532.65 692.98 532.65 507.01 532.65 507.01 404.55 507.01 276.44 692.98 276.44 878.96 276.44 878.96 404.55" fill="#0F9D58"/>
  <path d="m878.96 545.16h-371.94c-3.456 0-6.584-1.4-8.848-3.664s-3.664-5.392-3.664-8.848v-256.21c0-3.455 1.4-6.583 3.664-8.848s5.392-3.664 8.848-3.664h371.94c3.456 0 6.583 1.4 8.848 3.664s3.664 5.392 3.664 8.848v256.21c0 3.456-1.4 6.584-3.664 8.848-2.265 2.264-5.393 3.664-8.849 3.664zm-359.43-25.024h346.92v-231.19h-346.92v231.19z" fill="#2E4C59"/>
  <polygon points="692.98 616.23 507.01 616.23 321.04 616.23 321.04 488.12 321.04 360.02 507.01 360.02 692.98 360.02 692.98 488.12" fill="#F4B400"/>
  <path d="m692.98 628.74h-371.94c-3.456 0-6.584-1.4-8.848-3.664s-3.664-5.392-3.664-8.848v-256.21c0-3.455 1.4-6.583 3.664-8.848s5.392-3.664 8.848-3.664h371.94c3.456 0 6.584 1.4 8.848 3.664s3.664 5.392 3.664 8.848v256.21c0 3.456-1.4 6.584-3.664 8.848-2.265 2.263-5.393 3.664-8.849 3.664zm-359.43-25.024h346.92v-231.18h-346.92v231.18z" fill="#2E4C59"/>
</svg>
