<?xml version="1.0" encoding="UTF-8"?>
<svg enable-background="new 0 0 1200 1200" version="1.1" viewBox="0 0 1200 1200" xml:space="preserve" xmlns="http://www.w3.org/2000/svg">
	<path d="m1012.8 794.49c-3.87 0-7.374-1.568-9.91-4.104s-4.104-6.04-4.104-9.91v-249.53c0-109.95-44.724-209.65-116.94-281.86s-171.91-116.94-281.86-116.94-209.65 44.724-281.86 116.94-116.94 171.91-116.94 281.86v249.53c0 3.87-1.568 7.374-4.104 9.91s-6.04 4.104-9.91 4.104-7.374-1.568-9.91-4.104-4.104-6.04-4.104-9.91v-249.53c0-117.68 47.868-224.38 125.16-301.67s183.99-125.16 301.67-125.16 224.38 47.868 301.67 125.16 125.16 183.99 125.16 301.67v249.53c0 3.87-1.568 7.374-4.104 9.91-2.537 2.536-6.04 4.104-9.911 4.104z" fill="#2E4C59"/>
  <path d="m64.015 812.63v-14.61c0-24.185 9.803-46.081 25.652-61.93s37.745-25.652 61.93-25.652h14.61c24.185 0 46.081 9.803 61.93 25.652s25.652 37.745 25.652 61.93v14.61c0 24.185-9.803 46.081-25.652 61.93s-37.745 25.652-61.93 25.652h-14.61c-24.185 0-46.081-9.803-61.93-25.652-15.849-15.85-25.652-37.745-25.652-61.93z" fill="#4285F4"/>
  <path d="m158.9 914.23c-30.025 0-57.25-12.213-76.969-31.932s-31.932-46.944-31.932-76.968c0-30.025 12.213-57.251 31.932-76.97 19.719-19.72 46.944-31.933 76.969-31.933s57.251 12.214 76.97 31.933c19.72 19.72 31.933 46.946 31.933 76.97 0 30.025-12.214 57.25-31.933 76.969s-46.946 31.931-76.97 31.931zm0-189.78c-22.296 0-42.514 9.07-57.158 23.714s-23.714 34.863-23.714 57.16c0 22.296 9.07 42.514 23.714 57.158s34.862 23.714 57.158 23.714c22.297 0 42.516-9.07 57.16-23.714s23.714-34.862 23.714-57.158c0-22.297-9.07-42.516-23.714-57.16s-34.863-23.714-57.16-23.714z" fill="#2E4C59"/>
  <path d="m350.4 609.41c-4.654-0.642-9.353-1.143-14.096-1.482-4.743-0.34-9.531-0.518-14.361-0.518-56.983 0-108.57 23.097-145.92 60.44s-60.44 88.932-60.44 145.92 23.097 108.57 60.44 145.92 88.932 60.44 145.92 60.44c4.83 0 9.618-0.179 14.361-0.519s9.443-0.84 14.096-1.482v-408.71z" fill="#DB4437"/>
  <path d="m321.95 1034.1c-60.756 0-115.85-24.714-155.75-64.618s-64.618-94.997-64.618-155.75c0-60.756 24.714-115.85 64.618-155.75 39.903-39.903 94.996-64.618 155.75-64.618 4.958 0 9.992 0.179 15.067 0.535 5.074 0.356 10.19 0.889 15.311 1.597 3.467 0.479 6.491 2.2 8.648 4.676s3.448 5.707 3.448 9.207v408.71c0 3.5-1.291 6.732-3.45 9.208-2.158 2.476-5.184 4.198-8.652 4.675-5.13 0.708-10.249 1.241-15.323 1.597-5.074 0.357-10.102 0.536-15.049 0.536zm0-412.71c-53.028 0-101.11 21.571-135.94 56.399s-56.399 82.913-56.399 135.94 21.571 101.11 56.399 135.94c34.828 34.828 82.913 56.4 135.94 56.4 2.366 0 4.757-0.047 7.167-0.142s4.837-0.236 7.278-0.425v-383.55c-2.438-0.189-4.863-0.331-7.272-0.425-2.411-0.095-4.803-0.142-7.173-0.142z" fill="#2E4C59"/>
  <g fill="#2E4C59" opacity=".2">
					<path d="m321.95 607.41c-12.884 0-25.487 1.191-37.712 3.46s-24.072 5.617-35.444 9.931v385.93c11.372 4.314 23.219 7.661 35.444 9.93s24.828 3.46 37.712 3.46c4.83 0 9.618-0.179 14.361-0.519s9.443-0.84 14.096-1.482v-408.71c-4.654-0.642-9.353-1.143-14.096-1.482s-9.531-0.518-14.361-0.518z"/>
    <path d="m321.95 1034.1c-13.408 0-26.684-1.203-39.735-3.592s-25.878-5.965-38.388-10.71c-2.724-1.032-4.985-2.852-6.566-5.142s-2.481-5.05-2.481-7.961v-385.93c0-2.911 0.9-5.671 2.48-7.961s3.841-4.11 6.564-5.142c17.134-6.498 34.775-10.851 52.875-12.924s36.659-1.866 55.628 0.754c3.467 0.479 6.491 2.2 8.648 4.676s3.448 5.707 3.448 9.207v408.71c0 3.5-1.291 6.732-3.45 9.208-2.158 2.476-5.184 4.198-8.652 4.675-5.13 0.708-10.249 1.241-15.323 1.597-5.073 0.356-10.101 0.535-15.048 0.535zm-59.141-37.333c9.546 3.089 19.282 5.415 29.156 6.969s19.886 2.335 29.985 2.335c2.366 0 4.757-0.047 7.167-0.142s4.837-0.236 7.278-0.425v-383.55c-12.825-0.988-25.33-0.71-37.575 0.768-12.244 1.478-24.228 4.156-36.01 7.969v366.07z"/>
				</g>
  <path d="m364.49 1081.9h-5.13c-8.457 0-16.144-3.459-21.718-9.033s-9.033-13.261-9.033-21.718v-474.7c0-8.457 3.459-16.144 9.033-21.718s13.261-9.033 21.718-9.033h5.13c8.457 0 16.144 3.459 21.718 9.033s9.033 13.261 9.033 21.718v474.71c0 8.456-3.46 16.144-9.033 21.718-5.574 5.572-13.262 9.032-21.718 9.032z" fill="#4285F4"/>
  <path d="m361.93 1095.9c-13.05 0-24.883-5.308-33.453-13.878-8.571-8.57-13.879-20.403-13.879-33.451v-469.58c0-13.05 5.308-24.883 13.879-33.453 8.571-8.571 20.404-13.879 33.453-13.879 13.048 0 24.881 5.308 33.451 13.879s13.878 20.404 13.878 33.453v469.57c0 13.048-5.308 24.881-13.878 33.451-8.571 8.571-20.403 13.879-33.451 13.879zm0-536.21c-5.321 0-10.147 2.165-13.642 5.661-3.495 3.495-5.661 8.321-5.661 13.642v469.57c0 5.321 2.165 10.146 5.661 13.641 3.495 3.495 8.321 5.659 13.642 5.659s10.146-2.164 13.641-5.659 5.659-8.32 5.659-13.641v-469.57c0-5.321-2.164-10.147-5.659-13.642-3.495-3.496-8.32-5.661-13.641-5.661z" fill="#2E4C59"/>
  <polyline points="135.25 720.05 135.25 637.85 135.25 555.65" fill="#EAEEEF"/>
  <path d="m135.25 734.07c-3.87 0-7.374-1.568-9.91-4.104s-4.104-6.04-4.104-9.91v-164.4c0-3.87 1.568-7.374 4.104-9.91s6.04-4.104 9.91-4.104 7.374 1.568 9.91 4.104 4.104 6.04 4.104 9.91v164.4c0 3.87-1.568 7.374-4.104 9.91s-6.039 4.104-9.91 4.104z" fill="#2E4C59"/>
  <path d="m1136 807.02v-14.61c0-24.185-9.803-46.081-25.652-61.93s-37.745-25.652-61.93-25.652h-14.61c-24.185 0-46.081 9.803-61.93 25.652s-25.652 37.745-25.652 61.93v14.61c0 24.185 9.803 46.081 25.652 61.93s37.745 25.652 61.93 25.652h14.61c24.185 0 46.081-9.803 61.93-25.652 15.849-15.85 25.652-37.745 25.652-61.93z" fill="#4285F4"/>
  <path d="m1041.1 908.62c-30.025 0-57.25-12.213-76.969-31.932s-31.932-46.944-31.932-76.969 12.213-57.251 31.932-76.97c19.719-19.72 46.944-31.933 76.969-31.933s57.25 12.214 76.969 31.933c19.719 19.72 31.932 46.946 31.932 76.97 0 30.025-12.213 57.25-31.932 76.969-19.719 19.72-46.944 31.932-76.969 31.932zm0-189.78c-22.296 0-42.514 9.07-57.158 23.714s-23.714 34.863-23.714 57.16c0 22.296 9.07 42.514 23.714 57.158s34.862 23.714 57.158 23.714 42.514-9.07 57.158-23.714 23.714-34.862 23.714-57.158c0-22.297-9.07-42.516-23.714-57.16s-34.862-23.714-57.158-23.714z" fill="#2E4C59"/>
  <path d="m849.6 603.8c4.654-0.642 9.353-1.143 14.096-1.482s9.531-0.518 14.361-0.518c56.984 0 108.57 23.097 145.92 60.44s60.44 88.932 60.44 145.92c0 56.984-23.097 108.57-60.44 145.92s-88.932 60.44-145.92 60.44c-4.83 0-9.618-0.179-14.361-0.518-4.743-0.34-9.443-0.84-14.096-1.482v-408.71z" fill="#DB4437"/>
  <path d="m878.05 1028.5c-4.948 0-9.976-0.179-15.05-0.536s-10.193-0.889-15.323-1.597c-3.467-0.478-6.491-2.199-8.649-4.675-2.158-2.477-3.449-5.708-3.449-9.208v-408.71c0-3.5 1.291-6.731 3.448-9.207s5.181-4.197 8.648-4.676c5.119-0.708 10.233-1.241 15.308-1.597 5.074-0.356 10.109-0.535 15.067-0.535 60.757 0 115.85 24.714 155.75 64.618 39.904 39.903 64.618 94.996 64.618 155.75 0 60.757-24.714 115.85-64.618 155.75-39.904 39.903-94.997 64.618-155.75 64.618zm-14.441-28.596c2.44 0.189 4.867 0.331 7.276 0.425s4.799 0.142 7.165 0.142c53.028 0 101.11-21.571 135.94-56.4s56.4-82.914 56.4-135.94c0-53.028-21.571-101.11-56.4-135.94s-82.914-56.399-135.94-56.399c-2.37 0-4.762 0.047-7.171 0.141-2.408 0.094-4.834 0.235-7.271 0.423v383.55z" fill="#2E4C59"/>
  <g fill="#2E4C59" opacity=".2">
					<path d="m878.05 601.8c12.884 0 25.487 1.191 37.712 3.46s24.072 5.617 35.444 9.93v385.93c-11.372 4.314-23.219 7.661-35.444 9.93s-24.828 3.46-37.712 3.46c-4.83 0-9.618-0.179-14.361-0.518-4.743-0.34-9.443-0.84-14.096-1.482v-408.71c4.654-0.642 9.353-1.143 14.096-1.482s9.531-0.519 14.361-0.519z"/>
    <path d="m878.05 1028.5c-4.948 0-9.976-0.179-15.05-0.536s-10.193-0.889-15.323-1.597c-3.467-0.478-6.491-2.199-8.649-4.675-2.158-2.477-3.449-5.708-3.449-9.208v-408.71c0-3.5 1.291-6.731 3.448-9.207s5.181-4.197 8.648-4.676c18.97-2.618 37.532-2.825 55.632-0.752 18.101 2.072 35.741 6.424 52.869 12.922 2.722 1.032 4.983 2.852 6.564 5.142 1.58 2.29 2.48 5.05 2.48 7.961v385.93c0 2.911-0.9 5.671-2.48 7.961s-3.841 4.11-6.564 5.142c-12.511 4.745-25.337 8.32-38.389 10.71s-26.327 3.593-39.737 3.593zm-14.441-28.596c12.855 0.99 25.359 0.711 37.595-0.768s24.204-4.158 35.987-7.969v-366.08c-11.781-3.81-23.761-6.487-36.004-7.965s-24.748-1.757-37.578-0.772v383.55z"/>
				</g>
  <path d="m835.51 1076.3h5.13c8.457 0 16.144-3.459 21.718-9.033s9.033-13.261 9.033-21.718v-474.7c0-8.456-3.46-16.144-9.033-21.718s-13.261-9.033-21.718-9.033h-5.13c-8.457 0-16.144 3.459-21.718 9.033s-9.033 13.261-9.033 21.718v474.7c0 8.457 3.459 16.144 9.033 21.718s13.262 9.033 21.718 9.033z" fill="#4285F4"/>
  <path d="m838.08 1090.3c-13.05 0-24.883-5.308-33.453-13.878-8.571-8.57-13.879-20.403-13.879-33.451v-469.58c0-13.05 5.308-24.883 13.879-33.453 8.571-8.571 20.404-13.879 33.453-13.879 13.048 0 24.881 5.308 33.451 13.879s13.878 20.404 13.878 33.453v469.57c0 13.048-5.308 24.881-13.878 33.451-8.57 8.571-20.402 13.879-33.451 13.879zm0-536.21c-5.321 0-10.147 2.165-13.642 5.661-3.495 3.495-5.661 8.321-5.661 13.642v469.57c0 5.321 2.165 10.146 5.661 13.641 3.495 3.495 8.321 5.659 13.642 5.659s10.146-2.164 13.641-5.659 5.659-8.32 5.659-13.641v-469.57c0-5.321-2.164-10.147-5.659-13.642-3.495-3.496-8.32-5.661-13.641-5.661z" fill="#2E4C59"/>
  <polyline points="1064.7 714.45 1064.7 632.25 1064.7 550.05" fill="#EAEEEF"/>
  <path d="m1064.7 728.46c-3.87 0-7.374-1.568-9.91-4.104s-4.104-6.04-4.104-9.91v-164.4c0-3.87 1.568-7.374 4.104-9.91s6.04-4.104 9.91-4.104 7.374 1.568 9.91 4.104 4.104 6.04 4.104 9.91v164.4c0 3.87-1.568 7.374-4.104 9.91s-6.04 4.104-9.91 4.104z" fill="#2E4C59"/>
</svg>
